<svg height="90" viewBox="0 0 395 90" width="395" xmlns="http://www.w3.org/2000/svg" xmlns:xlink="http://www.w3.org/1999/xlink"><defs><rect id="a" height="72" rx="36" width="377"/><filter id="b" height="140.3%" width="107.7%" x="-3.8%" y="-17.4%"><feOffset dx="0" dy="2" in="SourceAlpha" result="shadowOffsetOuter1"/><feGaussianBlur in="shadowOffsetOuter1" result="shadowBlurOuter1" stdDeviation="4.5"/><feColorMatrix in="shadowBlurOuter1" type="matrix" values="0 0 0 0 0   0 0 0 0 0   0 0 0 0 0  0 0 0 0.5 0"/></filter></defs><g fill="none" fill-rule="evenodd"><g transform="translate(9 7)"><use fill="#000" filter="url(#b)" xlink:href="#a"/><use fill="#fff" fill-rule="evenodd" xlink:href="#a"/></g><g fill="#999595" transform="translate(43 26)"><path d="m86.336 21.416c0 1.5040075-.5519945 2.7119954-1.656 3.624-1.1200056.8960045-2.479992 1.344-4.08 1.344-1.4240071 0-2.6799946-.4159958-3.768-1.248s-1.8399979-1.9679928-2.256-3.408l2.112-.864c.1440007.5120026.3439987.9759979.6 1.392s.5559983.7719985.9 1.068.7239979.5279992 1.14.696.8559977.252 1.32.252c1.008005 0 1.8319968-.2599974 2.472-.78s.96-1.2119957.96-2.076c0-.7200036-.2639974-1.3359974-.792-1.848-.4960025-.4960025-1.4239932-.9759977-2.784-1.44-1.3760069-.4960025-2.2319983-.8319991-2.568-1.008-1.8240091-.9280046-2.736-2.295991-2.736-4.104 0-1.2640063.503995-2.3439955 1.512-3.24 1.0240051-.89600448 2.2799926-1.344 3.768-1.344 1.3120066 0 2.4479952.33599664 3.408 1.008.9600048.6560033 1.5999984 1.479995 1.92 2.472l-2.064.864c-.192001-.6400032-.5719972-1.1719979-1.14-1.596s-1.2599959-.636-2.076-.636c-.8640043 0-1.591997.2399976-2.184.72-.592003.4480022-.888 1.0319964-.888 1.752 0 .592003.2319977 1.1039978.696 1.536.5120026.4320022 1.6239914.943997 3.336 1.536 1.7440087.592003 2.9879963 1.3159957 3.732 2.172s1.116 1.9079938 1.116 3.156zm5.511-11.232c0 .4320022-.1519985.7999985-.456 1.104s-.6719978.456-1.104.456-.7999985-.1519985-1.104-.456-.456-.6719978-.456-1.104c0-.43200216.1519985-.79999848.456-1.104s.6719978-.456 1.104-.456.7999985.15199848 1.104.456.456.67199784.456 1.104zm-.456 4.056v11.76h-2.208v-11.76zm8.415 10.128c1.088005 0 1.975997-.3919961 2.664-1.176.720004-.7840039 1.08-1.8079937 1.08-3.072 0-1.2320062-.359996-2.247996-1.08-3.048-.704004-.800004-1.591995-1.2-2.664-1.2-1.0560053 0-1.9439964.399996-2.664 1.2s-1.08 1.8159938-1.08 3.048c0 1.2480062.3599964 2.2639961 1.08 3.048.7200036.800004 1.6079947 1.2 2.664 1.2zm-.072 7.2c-.6560033 0-1.2719971-.0839992-1.848-.252s-1.0999976-.4039985-1.572-.708-.8759983-.6639979-1.212-1.08-.5919991-.8799974-.768-1.392l2.088-.864c.2400012.6880034.655997 1.2399979 1.248 1.656s1.2799961.624 2.064.624c1.200006 0 2.135997-.3599964 2.808-1.08s1.008-1.7119937 1.008-2.976v-1.128h-.096c-.416002.6240031-.979996 1.1159982-1.692 1.476s-1.483996.54-2.316.54c-1.5360077 0-2.8559945-.599994-3.96-1.8-1.0880054-1.2320062-1.632-2.7199913-1.632-4.464s.5439946-3.2239939 1.632-4.44c1.1040055-1.2160061 2.4239923-1.824 3.96-1.824.832004 0 1.603996.1799982 2.316.54s1.275998.8519969 1.692 1.476h.096v-1.632h2.112v11.256c0 1.8880094-.535995 3.3679946-1.608 4.44-1.088005 1.0880054-2.527991 1.632-4.32 1.632zm8.991-17.328h2.112v1.632h.096c.336002-.5760029.851997-1.0559981 1.548-1.44s1.419996-.576 2.172-.576c1.440007 0 2.547996.4119959 3.324 1.236s1.164 1.9959924 1.164 3.516v7.392h-2.208v-7.248c-.048-1.9200096-1.015991-2.88-2.904-2.88-.880004 0-1.615997.3559964-2.208 1.068s-.888 1.563995-.888 2.556v6.504h-2.208zm21.894-4.056c0 .4320022-.151998.7999985-.456 1.104s-.671998.456-1.104.456-.799998-.1519985-1.104-.456-.456-.6719978-.456-1.104c0-.43200216.151998-.79999848.456-1.104s.671998-.456 1.104-.456.799998.15199848 1.104.456.456.67199784.456 1.104zm-.456 4.056v11.76h-2.208v-11.76zm3.255 0h2.112v1.632h.096c.336002-.5760029.851997-1.0559981 1.548-1.44s1.419996-.576 2.172-.576c1.440007 0 2.547996.4119959 3.324 1.236s1.164 1.9959924 1.164 3.516v7.392h-2.208v-7.248c-.048-1.9200096-1.015991-2.88-2.904-2.88-.880004 0-1.615997.3559964-2.208 1.068s-.888 1.563995-.888 2.556v6.504h-2.208zm35.694 0-3.792 11.76h-2.256l-2.928-9.024-2.904 9.024h-2.232l-3.792-11.76h2.304l2.616 8.88h.024l2.904-8.88h2.28l2.904 8.88h.024l2.592-8.88zm4.671-4.056c0 .4320022-.151998.7999985-.456 1.104s-.671998.456-1.104.456-.799998-.1519985-1.104-.456-.456-.6719978-.456-1.104c0-.43200216.151998-.79999848.456-1.104s.671998-.456 1.104-.456.799998.15199848 1.104.456.456.67199784.456 1.104zm-.456 4.056v11.76h-2.208v-11.76zm7.791 11.952c-.960005 0-1.755997-.295997-2.388-.888s-.956-1.4159947-.972-2.472v-6.576h-2.064v-2.016h2.064v-3.6h2.208v3.6h2.88v2.016h-2.88v5.856c0 .7840039.151998 1.3159986.456 1.596s.647998.42 1.032.42c.176001 0 .347999-.0199998.516-.06s.323999-.0919997.468-.156l.696 1.968c-.576003.208001-1.247996.312-2.016.312zm4.335-17.376h2.208v5.424l-.096 1.632h.096c.336002-.5760029.851997-1.0559981 1.548-1.44s1.419996-.576 2.172-.576c1.440007 0 2.547996.4119959 3.324 1.236s1.164 1.9959924 1.164 3.516v7.392h-2.208v-6.96c0-2.1120106-.935991-3.168-2.808-3.168-.896004 0-1.651997.3719963-2.268 1.116s-.924 1.611995-.924 2.604v6.408h-2.208zm35.478 9.288c0 2.400012-.711993 4.3119929-2.136 5.736-1.600008 1.6960085-3.703987 2.544-6.312 2.544-2.496012 0-4.607991-.8639914-6.336-2.592s-2.592-3.8559874-2.592-6.384.863991-4.6559914 2.592-6.384c1.728009-1.72800864 3.839988-2.592 6.336-2.592 1.264006 0 2.455994.22399776 3.576.672s2.039996 1.0799959 2.76 1.896l-1.584 1.584c-.528003-.6400032-1.211996-1.1399982-2.052-1.5s-1.739995-.54-2.7-.54c-1.872009 0-3.455994.6479935-4.752 1.944-1.280006 1.3120066-1.92 2.9519902-1.92 4.92s.639994 3.6079934 1.92 4.92c1.296006 1.2960065 2.879991 1.944 4.752 1.944 1.712009 0 3.135994-.4799952 4.272-1.44s1.791999-2.2799916 1.968-3.96h-6.24v-2.064h8.328c.08.4480022.12.8799979.12 1.296zm1.887 2.016c0-1.808009.567994-3.3039941 1.704-4.488 1.152006-1.1840059 2.599991-1.776 4.344-1.776s3.183994.5919941 4.32 1.776c1.152006 1.1840059 1.728 2.679991 1.728 4.488 0 1.8240091-.575994 3.3199942-1.728 4.488-1.136006 1.1840059-2.575991 1.776-4.32 1.776s-3.191994-.5919941-4.344-1.776c-1.136006-1.1840059-1.704-2.679991-1.704-4.488zm2.208 0c0 1.2640063.367996 2.2879961 1.104 3.072s1.647995 1.176 2.736 1.176 1.999996-.3919961 2.736-1.176 1.104-1.8079937 1.104-3.072c0-1.2480062-.367996-2.2639961-1.104-3.048-.752004-.800004-1.663995-1.2-2.736-1.2s-1.983996.399996-2.736 1.2c-.736004.7840039-1.104 1.8-1.104 3.048zm11.607 0c0-1.808009.567994-3.3039941 1.704-4.488 1.152006-1.1840059 2.599991-1.776 4.344-1.776s3.183994.5919941 4.32 1.776c1.152006 1.1840059 1.728 2.679991 1.728 4.488 0 1.8240091-.575994 3.3199942-1.728 4.488-1.136006 1.1840059-2.575991 1.776-4.32 1.776s-3.191994-.5919941-4.344-1.776c-1.136006-1.1840059-1.704-2.679991-1.704-4.488zm2.208 0c0 1.2640063.367996 2.2879961 1.104 3.072s1.647995 1.176 2.736 1.176 1.999996-.3919961 2.736-1.176 1.104-1.8079937 1.104-3.072c0-1.2480062-.367996-2.2639961-1.104-3.048-.752004-.800004-1.663995-1.2-2.736-1.2s-1.983996.399996-2.736 1.2c-.736004.7840039-1.104 1.8-1.104 3.048zm17.559 4.248c1.088005 0 1.975997-.3919961 2.664-1.176.720004-.7840039 1.08-1.8079937 1.08-3.072 0-1.2320062-.359996-2.247996-1.08-3.048-.704004-.800004-1.591995-1.2-2.664-1.2-1.056005 0-1.943996.399996-2.664 1.2s-1.08 1.8159938-1.08 3.048c0 1.2480062.359996 2.2639961 1.08 3.048.720004.800004 1.607995 1.2 2.664 1.2zm-.072 7.2c-.656003 0-1.271997-.0839992-1.848-.252s-1.099998-.4039985-1.572-.708-.875998-.6639979-1.212-1.08-.591999-.8799974-.768-1.392l2.088-.864c.240001.6880034.655997 1.2399979 1.248 1.656s1.279996.624 2.064.624c1.200006 0 2.135997-.3599964 2.808-1.08s1.008-1.7119937 1.008-2.976v-1.128h-.096c-.416002.6240031-.979996 1.1159982-1.692 1.476s-1.483996.54-2.316.54c-1.536008 0-2.855994-.599994-3.96-1.8-1.088005-1.2320062-1.632-2.7199913-1.632-4.464s.543995-3.2239939 1.632-4.44c1.104006-1.2160061 2.423992-1.824 3.96-1.824.832004 0 1.603996.1799982 2.316.54s1.275998.8519969 1.692 1.476h.096v-1.632h2.112v11.256c0 1.8880094-.535995 3.3679946-1.608 4.44-1.088005 1.0880054-2.527991 1.632-4.32 1.632zm11.199-22.752v17.184h-2.208v-17.184zm8.223 17.568c-1.728009 0-3.151994-.5919941-4.272-1.776s-1.68-2.679991-1.68-4.488c0-1.792009.543995-3.283994 1.632-4.476s2.479992-1.788 4.176-1.788c1.744009 0 3.131995.5639944 4.164 1.692s1.548 2.7079898 1.548 4.74l-.024.24h-9.24c.032 1.1520058.415996 2.0799965 1.152 2.784s1.615995 1.056 2.64 1.056c1.408007 0 2.511996-.703993 3.312-2.112l1.968.96c-.528003.992005-1.259995 1.7679972-2.196 2.328s-1.995994.84-3.18.84zm-3.528-7.68h6.744c-.064-.8160041-.395997-1.4919973-.996-2.028s-1.403995-.804-2.412-.804c-.832004 0-1.547997.2559974-2.148.768s-.995999 1.1999957-1.188 2.064z" fill-rule="nonzero"/><path d="m17.3295918 20.825v-6.51h16.2367347c.2428572 1.1025.4336735 2.135.4336735 3.5875 0 9.9925-6.6438776 17.0975-16.6530612 17.0975-9.57551023 0-17.3469388-7.84-17.3469388-17.5s7.77142857-17.5 17.3469388-17.5c4.6836734 0 8.6040816 1.7325 11.605102 4.5675l-4.9265306 4.83c-1.2489796-1.19-3.4346939-2.59-6.6785714-2.59-5.7418368 0-10.42551023 4.8125-10.42551023 10.71s4.68367343 10.71 10.42551023 10.71c6.6438775 0 9.0897959-4.6375 9.5408163-7.385h-9.5581633z"/></g></g></svg>