<svg enable-background="new 0 0 498.6 326" viewBox="0 0 498.6 326" xmlns="http://www.w3.org/2000/svg"><path d="m160.6 214v5.5s-3.5 2.1-2.4 5.8c1.1 3.6 4.2 5.3 8.8 5 4.5-.3 10.9-3.6 5.9-11.1l.3-.8s5-.3 8.6 3.6 8.2 9.2 10.4 9.7c2.3.5 2.7-.8 2.7-.8l7.7-18.5s1.8-1.2-.9-2.3-7.4-2.3-10.1-8.2-3.6-12.4-8.2-15.6c-4.5-3.2-7.4-4.5-7.4-4.5s1.5-3.3.5-5c0 0 6.4-.9 5.8-6.2 0 0 6.5-.8 4.2-8.6 0 0 7.1-2.3 4.1-10.3 0 0 7.3-3 7.6-13.2.3-10.1-3-15.3-2.7-18.8s2.4-8.3 2.4-8.3-9.7 2-9.7 9.7c0 0-3.3-7.4 0-13.3 0 0-7.6 2.1-8.3 8.6 0 0 1.2-12.9-9.2-17.7 0 0 .6 10.1-1.2 12.9 0 0-.6-12.9-10.8-14.5 0 0 1.8 12.3-4.1 16.2 0 0-3.2-9.1-8.2-10.6 0 0 .1 6.5-3.5 12.4s-5.9 27.7 1.7 34.7c0 0-6.7 5.5 2 12.3 0 0-2.3 5.3 6.1 8.5 0 0-1.1 4.7 4.2 6.4v2s-5.6.2-6.2 5.9c0 0-6.5 3.9-2.3 9.4 0 0-4.2 3.5.5 8.3 0 0-2.4 4.7 4.4 8.3 6.7 3.5 7.3 3.1 7.3 3.1z" fill="#734b00"/><path d="m397.6 102.9-148.4-62-148.4 62s29.9 25.9 19.9 75.5-26.2 113.2 39.3 122.3c65.5 9.2 84.8 16.2 89.1 25.3 4.4-9.2 23.7-16.2 89.1-25.3 65.5-9.2 49.2-72.8 39.3-122.3-9.8-49.7 20.1-75.5 20.1-75.5z" fill="#bc995c"/><path d="m249.3 316.2c-10-7.4-32.6-13.7-88-21.4-14.9-2.1-25.5-7.2-32.5-15.7-17.2-21-9.4-59.2-2.5-92.9.5-2.3.9-4.6 1.4-6.9 7.7-38.4-7.1-63.4-16-74.4l137.6-57.5 137.6 57.6c-8.9 11-23.7 36-16 74.4.5 2.3.9 4.6 1.4 6.9 6.9 33.7 14.7 72-2.5 92.9-6.9 8.5-17.6 13.6-32.5 15.7-55.4 7.6-78 13.9-88 21.3z" fill="#a70531"/><path d="m498.6 89.4-249.1-89.3v-.1l-.2.1-.2-.1v.1l-249.1 89.3v52l249.3-86.9 249.3 86.9z" fill="#bc995c"/><path d="m249.3 48.1-242.4 84.5v-39.3l242.4-86.8 242.4 86.8v39.3z" fill="#4f2500"/><g fill="#bc995c"><path d="m16.5 111.7 5.1-2.2c.1 1.1.3 1.8.6 2.3.5.8 1.3.9 2.3.6.8-.3 1.4-.7 1.8-1.3s.6-1.3.7-1.9c0-.6-.2-1.1-.5-1.4-.4-.3-1.3-.5-2.7-.4-2.3.1-4-.3-4.9-1.1-1-.8-1.4-2.1-1.4-4 0-1.2.3-2.4.9-3.7.5-1.2 1.3-2.3 2.4-3.3 1-1 2.5-1.8 4.3-2.4 2.2-.8 3.9-.8 5-.1s1.8 2.2 1.9 4.6l-5 2.1c-.1-1-.4-1.7-.8-2s-1-.4-1.7-.1c-.6.2-1.1.6-1.4 1-.3.5-.5.9-.5 1.5 0 .4.1.7.4.9.2.2.8.3 1.8.2 2.3-.1 4 0 4.9.3 1 .3 1.7.9 2.1 1.8s.6 1.9.6 3.2c0 1.5-.4 3-1 4.4-.6 1.5-1.5 2.7-2.6 3.7s-2.5 1.8-4.2 2.4c-2.9 1-4.9 1-6-.2-1.4-.9-2-2.6-2.1-4.9z"/><path d="m34.1 90.2 16.2-5.6-.2 5.7-5.4 1.9-.5 17.5-5.3 1.8.5-17.5-5.4 1.9z"/><path d="m48.2 101.9 5.1-1.8-.2 6.5-5.1 1.8z"/><path d="m75.1 95.2-6 2.1-.9 4.1-5.4 1.9 7.1-25.5 5.8-2 5.8 21-5.6 1.9zm-1-4.6-1.7-7.7-2.1 9z"/><path d="m83.8 73 5-1.7 6.1 10.6.3-12.9 5-1.7-.7 23.2-5 1.7-6.1-10.5-.4 12.8-5 1.7z"/><path d="m102.6 66.5 16.2-5.6-.2 5.7-5.4 1.9-.5 17.5-5.3 1.8.5-17.5-5.4 1.9z"/><path d="m121.2 60 5.3-1.8-.2 8.1 5.8-2 .2-8.1 5.3-1.9-.6 23.2-5.3 1.9.3-9.4-5.8 2-.3 9.4-5.3 1.8z"/><path d="m140.2 64.9c.1-3.8 1-7 2.6-9.7s3.8-4.5 6.6-5.4c2.9-1 5-.7 6.5.8s2.2 4.2 2.1 7.9c-.1 2.7-.5 5.1-1.2 7-.7 2-1.7 3.7-3.1 5.1-1.3 1.4-2.9 2.4-4.8 3.1s-3.5.8-4.8.4c-1.2-.4-2.2-1.4-3-2.9-.6-1.4-.9-3.6-.9-6.3zm5.4-1.8c-.1 2.3.2 3.9.8 4.7s1.5 1 2.6.6 2-1.2 2.7-2.4 1-3.1 1.1-5.7c.1-2.2-.2-3.7-.8-4.5s-1.5-1-2.6-.6-1.9 1.2-2.6 2.4c-.8 1.3-1.2 3.1-1.2 5.5z"/><path d="m161.3 46.1 5-1.7 6.1 10.6.4-12.9 5-1.7-.7 23.2-5 1.7-6.1-10.5-.4 12.8-5 1.7z"/><path d="m179.6 39.8 5.9-2 3.3 6.6 3.7-9 5.9-2-7.1 15.8-.3 9.7-5.3 1.8.3-9.7z"/><path d="m199.1 32.6 5.1-1.8-.1 5.3c-.1 2-.4 3.6-1 5-.6 1.3-1.7 2.7-3.2 4.1l-1-2.4c.9-.9 1.6-1.7 1.9-2.4.4-.7.6-1.4.6-2.2l-2.4.8z"/><path d="m205.4 46.2 5.1-2.2c.1 1.1.3 1.8.6 2.3.5.8 1.3.9 2.3.6.8-.3 1.4-.7 1.8-1.3s.6-1.3.7-1.9c0-.6-.2-1.1-.5-1.4-.4-.3-1.3-.5-2.7-.4-2.3.1-4-.3-4.9-1.1-1-.8-1.4-2.1-1.4-4 0-1.2.3-2.4.9-3.7.5-1.2 1.3-2.3 2.4-3.3 1-1 2.5-1.8 4.3-2.4 2.2-.8 3.9-.8 5-.1s1.8 2.2 1.9 4.6l-5 2.1c-.1-1-.4-1.7-.8-2s-1-.4-1.7-.1c-.6.2-1.1.6-1.4 1-.3.5-.5.9-.5 1.5 0 .4.1.7.4.9.2.2.8.3 1.8.2 2.3-.1 4 0 4.9.3 1 .3 1.7.9 2.1 1.8s.6 1.9.6 3.2c0 1.5-.4 3-1 4.4-.6 1.5-1.5 2.7-2.6 3.7s-2.5 1.8-4.2 2.4c-2.9 1-4.9 1-6-.2-1.4-.9-2-2.6-2.1-4.9z"/><path d="m230.8 37.4 5.1-2.2c.1 1.1.3 1.8.6 2.3.5.8 1.3.9 2.3.6.8-.3 1.4-.7 1.8-1.3s.6-1.3.7-1.9c0-.6-.2-1.1-.5-1.4-.4-.3-1.3-.5-2.7-.4-2.3.1-4-.3-4.9-1.1-1-.8-1.4-2.1-1.4-4 0-1.2.3-2.4.9-3.7.5-1.2 1.3-2.3 2.4-3.3 1-1 2.5-1.8 4.3-2.4 2.2-.8 3.9-.8 5-.1s1.8 2.2 1.9 4.6l-5 2.1c-.1-1-.4-1.7-.8-2s-1-.4-1.7-.1c-.6.2-1.1.6-1.4 1-.3.5-.5.9-.5 1.5 0 .4.1.7.4.9.2.2.8.3 1.8.2 2.3-.1 4 0 4.9.3 1 .3 1.7.9 2.1 1.8s.6 1.9.6 3.2c0 1.5-.4 3-1 4.4-.6 1.5-1.5 2.7-2.6 3.7s-2.5 1.8-4.2 2.4c-2.9 1-4.9 1-6-.2-1.4-.9-2-2.6-2.1-4.9z"/><path d="m262.8 33.9 4.6 3.7c-.4 1.8-.9 3.1-1.6 4.2-.7 1-1.6 1.7-2.6 1.9-1 .3-2.3.2-3.9-.4-1.9-.7-3.4-1.6-4.6-2.8s-2.2-2.9-3-5.2-1.2-4.9-1.1-8c.1-4.1.9-6.9 2.5-8.6 1.6-1.6 3.7-2 6.5-1 2.2.8 3.9 2 5.1 3.7s2.1 3.9 2.7 6.7l-4.8-.2c-.2-.8-.3-1.4-.5-1.8-.3-.7-.6-1.3-1.1-1.7-.4-.5-.9-.8-1.4-1-1.2-.4-2.2-.1-2.8 1.1-.5.9-.8 2.4-.8 4.6-.1 2.7.2 4.7.8 5.9s1.4 2 2.4 2.4 1.8.2 2.3-.4c.6-.5 1-1.6 1.3-3.1z"/><path d="m270.4 22 5.4 1.9-.2 8.6 5.8 2.1.2-8.6 5.4 1.9-.5 24.6-5.4-1.9.2-9.9-5.8-2.1-.2 9.9-5.4-1.9z"/><path d="m289.6 41.1c.1-4 .9-6.9 2.5-8.5 1.6-1.7 3.8-2 6.6-1 2.9 1 5.1 2.9 6.6 5.6s2.2 6.1 2.2 10.1c-.1 2.9-.4 5.1-1.2 6.7-.7 1.6-1.7 2.7-3 3.3s-2.9.5-4.8-.2c-2-.7-3.6-1.7-4.8-3-1.3-1.3-2.3-3.1-3-5.3-.8-2.2-1.2-4.8-1.1-7.7zm5.3 2c-.1 2.5.2 4.4.9 5.7.6 1.3 1.5 2.2 2.6 2.6s2 .2 2.7-.7c.7-.8 1-2.6 1.1-5.4 0-2.3-.2-4.1-.9-5.4-.6-1.3-1.5-2.1-2.6-2.5s-2-.1-2.6.7c-.8.8-1.1 2.5-1.2 5z"/><path d="m309.7 48.2c.1-4 .9-6.9 2.5-8.5 1.6-1.7 3.8-2 6.6-1 2.9 1 5.1 2.9 6.6 5.6s2.2 6.1 2.2 10.1c-.1 2.9-.4 5.1-1.2 6.7-.7 1.6-1.7 2.7-3 3.3s-2.9.5-4.8-.2c-2-.7-3.6-1.7-4.8-3-1.3-1.3-2.3-3.1-3-5.3-.8-2.3-1.1-4.8-1.1-7.7zm5.4 2c-.1 2.5.2 4.4.9 5.7.6 1.3 1.5 2.2 2.6 2.6s2 .2 2.7-.7c.7-.8 1-2.6 1.1-5.4 0-2.3-.2-4.1-.9-5.4-.6-1.3-1.5-2.1-2.6-2.5s-2-.1-2.6.7c-.8.8-1.2 2.4-1.2 5z"/><path d="m330.8 43.3 5.3 1.9-.4 18.5 8.4 2.9-.1 6.1-13.7-4.8z"/><path d="m355.1 51.8 7.9 2.8c1.6.6 2.8 1.3 3.8 2.2s1.7 2.1 2.3 3.4c.6 1.4 1 2.8 1.3 4.4s.4 3.2.3 4.9c-.1 2.6-.3 4.6-.8 5.9s-1.1 2.3-1.8 3c-.8.7-1.6 1.1-2.4 1.1-1.2 0-2.3-.1-3.2-.5l-7.9-2.8zm5.2 7.4-.3 13.5 1.3.5c1.1.4 1.9.5 2.4.3s.9-.7 1.1-1.5c.3-.8.4-2.2.5-4.1.1-2.6-.2-4.5-.8-5.7s-1.6-2-2.9-2.5z"/><path d="m372.9 70.5c.1-4 .9-6.9 2.5-8.5 1.6-1.7 3.8-2 6.6-1 2.9 1 5.1 2.9 6.6 5.6s2.2 6.1 2.2 10.1c-.1 2.9-.4 5.1-1.2 6.7-.7 1.6-1.7 2.7-3 3.3s-2.9.5-4.8-.2c-2-.7-3.6-1.7-4.8-3-1.3-1.3-2.3-3.1-3-5.3-.8-2.3-1.2-4.9-1.1-7.7zm5.3 1.9c-.1 2.5.2 4.4.9 5.7.6 1.3 1.5 2.2 2.6 2.6s2 .2 2.7-.7c.7-.8 1-2.6 1.1-5.4 0-2.3-.2-4.1-.9-5.4-.6-1.3-1.5-2.1-2.6-2.5s-2-.1-2.6.7c-.8.8-1.1 2.5-1.2 5z"/><path d="m393.5 90.1.5-24.6 8.9 3.1c1.7.6 2.9 1.2 3.8 1.9s1.6 1.7 2.1 3 .8 2.7.7 4.3c0 1.4-.3 2.5-.7 3.3s-1 1.4-1.7 1.8c-.5.2-1.1.3-1.9.3.6.5 1.1 1 1.4 1.4.2.3.5.8.8 1.6.4.8.6 1.4.7 1.8l2.4 8-6-2.1-2.7-8.5c-.3-1.1-.7-1.8-.9-2.2-.4-.5-.8-.9-1.3-1l-.5-.2-.2 10zm5.7-12.7 2.3.8c.2.1.7.1 1.4.2.4 0 .7-.1.9-.5.2-.3.4-.8.4-1.3 0-.8-.1-1.5-.5-2-.3-.5-1-1-2-1.3l-2.4-.8z"/><path d="m423 96.4-6.1-2.1-.9 3.7-5.5-1.9 7-22.3 5.8 2.1 6 26.9-5.6-2zm-1-5.7-1.7-9.5-2.1 8.2z"/><path d="m431.6 78.7 5 1.8 6.2 15.9.3-13.6 5 1.8-.5 24.6-5-1.8-6.2-15.8-.3 13.5-5-1.8z"/><path d="m451.8 85.8 7.9 2.8c1.6.6 2.8 1.3 3.8 2.2s1.7 2.1 2.3 3.4c.6 1.4 1 2.8 1.3 4.4s.4 3.2.3 4.9c-.1 2.6-.3 4.6-.8 5.9s-1.1 2.3-1.8 3c-.8.7-1.6 1.1-2.4 1.1-1.2 0-2.3-.1-3.2-.5l-7.9-2.8zm5.3 7.5-.3 13.4 1.3.5c1.1.4 1.9.5 2.4.3s.9-.7 1.1-1.5c.3-.8.4-2.2.5-4.1.1-2.6-.2-4.5-.8-5.7s-1.6-2-2.9-2.5z"/><path d="m479.8 116.3-6.1-2.1-.9 3.8-5.5-1.9 7-22.3 5.8 2.1 6 26.9-5.6-2zm-1.1-5.7-1.7-9.5-2.1 8.2z"/><path d="m249.5 51.2v-.2l-.2.1-.2-.1v.2l-89.9 32.8s31.4 38.7 90 17.9c58.6 20.8 90-17.9 90-17.9z"/></g><path d="m450.6 256.5-44.6-61.6v-.4c-.1-.1-.2-.3-.4-.4-.9.7-1.9 1.4-2.8 2.1-1 .7-1.9 1.4-2.8 2-.9.7-1.9 1.3-2.8 2-1 .6-1.9 1.3-2.8 1.9s-1.9 1.2-2.8 1.9c-.9.6-1.9 1.2-2.8 1.8s-1.9 1.2-2.8 1.7c-.9.6-1.9 1.1-2.8 1.7s-1.9 1.1-2.8 1.6-1.9 1.1-2.8 1.6-1.9 1-2.8 1.5-1.9 1-2.8 1.5-1.9 1-2.8 1.4c-.9.5-1.9.9-2.8 1.4s-1.9.9-2.8 1.4c-.9.4-1.8.9-2.8 1.3-.9.4-1.8.9-2.8 1.3-.9.4-1.8.8-2.8 1.2-.9.4-1.8.8-2.8 1.2-.9.4-1.8.8-2.7 1.2s-1.8.7-2.7 1.1-1.8.7-2.7 1.1-1.8.7-2.7 1-1.8.7-2.7 1-1.8.6-2.7 1c-.9.3-1.8.6-2.7.9s-1.8.6-2.7.9-1.8.6-2.7.9-1.8.6-2.7.8c-.9.3-1.8.5-2.7.8s-1.8.5-2.7.8-1.8.5-2.6.7c-.9.2-1.8.5-2.7.7s-1.8.5-2.6.7c-.9.2-1.8.4-2.6.6-.9.2-1.8.4-2.6.6-.9.2-1.8.4-2.6.6-.9.2-1.8.4-2.6.6-.9.2-1.7.4-2.6.5-.9.2-1.7.3-2.6.5s-1.7.3-2.6.5c-.9.1-1.7.3-2.6.4s-1.7.3-2.6.4-1.7.3-2.6.4-1.7.2-2.6.4c-.9.1-1.7.2-2.6.3s-1.7.2-2.6.3-1.7.2-2.6.3-1.7.2-2.6.3-1.7.2-2.6.2c-.9.1-1.7.1-2.6.2s-1.7.1-2.6.2-1.7.1-2.6.2c-.8.1-1.7.1-2.6.1s-1.7.1-2.6.1-1.7.1-2.6.1-1.7 0-2.6.1c-.8 0-1.7 0-2.6 0s-1.7 0-2.6 0-1.7 0-2.6 0-1.7 0-2.6 0-1.7 0-2.6-.1c-.8 0-1.7-.1-2.6-.1-.8 0-1.7-.1-2.6-.1s-1.7-.1-2.6-.1c-.9-.1-1.7-.1-2.6-.2s-1.7-.1-2.6-.2-1.7-.1-2.6-.2-1.7-.2-2.6-.2c-.9-.1-1.7-.2-2.6-.3s-1.7-.2-2.6-.3-1.7-.2-2.6-.3-1.7-.2-2.6-.3-1.7-.2-2.6-.4c-.9-.1-1.7-.3-2.6-.4s-1.7-.3-2.6-.4-1.7-.3-2.6-.4c-.9-.2-1.7-.3-2.6-.5s-1.7-.3-2.6-.5-1.7-.3-2.6-.5-1.7-.4-2.6-.6-1.7-.4-2.6-.6-1.8-.4-2.6-.6c-.9-.2-1.8-.4-2.6-.6-.9-.2-1.8-.4-2.6-.7-.9-.2-1.8-.5-2.7-.7s-1.8-.5-2.7-.7-1.8-.5-2.7-.8-1.8-.5-2.7-.8-1.8-.5-2.7-.8-1.8-.6-2.7-.9-1.8-.6-2.7-.9-1.8-.6-2.7-.9-1.8-.6-2.7-1c-.9-.3-1.8-.7-2.7-1s-1.8-.7-2.7-1-1.8-.7-2.7-1.1-1.8-.7-2.7-1.1-1.8-.8-2.7-1.2-1.8-.8-2.7-1.2-1.8-.8-2.8-1.2c-.9-.4-1.8-.8-2.8-1.3-.9-.4-1.8-.9-2.8-1.3-.9-.4-1.9-.9-2.8-1.4s-1.9-.9-2.8-1.4-1.9-1-2.8-1.4c-.9-.5-1.9-1-2.8-1.5s-1.9-1-2.8-1.5-1.9-1.1-2.8-1.6-1.9-1.1-2.8-1.6c-.9-.6-1.9-1.1-2.8-1.7s-1.9-1.2-2.8-1.7c-.9-.6-1.9-1.2-2.8-1.8s-1.9-1.2-2.8-1.8-1.9-1.3-2.8-1.9-1.9-1.3-2.8-2c-1-.7-1.9-1.3-2.8-2s-1.9-1.4-2.8-2.1c-.1.1-.1.2-.2.3v.5l-.1-.1-44.3 61.6s-1.1 16.1 14.2 24.6 28.9 10.4 37.1-5.2c5.8-10.9 11.5-20 14.4-24.5.1.1.2.1.3.2.9.5 1.8.9 2.8 1.4.9.4 1.9.9 2.8 1.3s1.8.9 2.8 1.3c.9.4 1.8.8 2.8 1.3.9.4 1.8.8 2.8 1.2.9.4 1.8.8 2.8 1.2l2.7 1.2c.9.4 1.8.7 2.7 1.1s1.8.7 2.7 1.1 1.8.7 2.7 1 1.8.7 2.7 1 1.8.7 2.7 1 1.8.6 2.7 1c.9.3 1.8.6 2.7.9s1.8.6 2.7.9 1.8.6 2.7.9 1.8.6 2.7.8c.9.3 1.8.5 2.7.8s1.8.5 2.7.8 1.8.5 2.7.8c.9.2 1.8.5 2.7.7s1.8.5 2.6.7c.9.2 1.8.5 2.6.7.9.2 1.8.4 2.6.6.9.2 1.8.4 2.6.6.9.2 1.8.4 2.6.6.9.2 1.7.4 2.6.6s1.7.4 2.6.5c.9.2 1.7.3 2.6.5s1.7.3 2.6.5 1.7.3 2.6.5c.9.1 1.7.3 2.6.4s1.7.3 2.6.4 1.7.3 2.6.4 1.7.3 2.6.4 1.7.2 2.6.4c.9.1 1.7.2 2.6.3s1.7.2 2.6.3 1.7.2 2.6.3 1.7.2 2.6.3 1.7.2 2.6.2c.9.1 1.7.1 2.6.2s1.7.1 2.6.2 1.7.1 2.6.2c.8.1 1.7.1 2.6.2s1.7.1 2.6.1 1.7.1 2.6.1c.8 0 1.7.1 2.6.1.8 0 1.7 0 2.6.1.8 0 1.7 0 2.6.1h2.6 2.6 2.6 2.6c.9 0 1.7 0 2.6-.1.9 0 1.7 0 2.6-.1.9 0 1.7-.1 2.6-.1s1.7-.1 2.6-.1 1.7-.1 2.6-.1c.8-.1 1.7-.1 2.6-.2s1.7-.1 2.6-.2 1.7-.1 2.6-.2 1.7-.1 2.6-.2 1.7-.2 2.6-.2c.9-.1 1.7-.2 2.6-.3s1.7-.2 2.6-.3 1.7-.2 2.6-.3 1.7-.2 2.6-.3 1.7-.2 2.6-.4c.9-.1 1.7-.2 2.6-.4.9-.1 1.7-.3 2.6-.4s1.7-.3 2.6-.4 1.7-.3 2.6-.4c.9-.2 1.7-.3 2.6-.5s1.7-.3 2.6-.5 1.7-.3 2.6-.5 1.7-.4 2.6-.5c.9-.2 1.8-.4 2.6-.6.9-.2 1.8-.4 2.6-.6.9-.2 1.8-.4 2.6-.6.9-.2 1.8-.4 2.6-.6.9-.2 1.8-.4 2.6-.7.9-.2 1.8-.5 2.6-.7.9-.2 1.8-.5 2.7-.7s1.8-.5 2.7-.8 1.8-.5 2.7-.8 1.8-.5 2.7-.8 1.8-.6 2.7-.8l2.7-.9 2.7-.9 2.7-.9c.9-.3 1.8-.6 2.7-1 .9-.3 1.8-.7 2.7-1s1.8-.7 2.7-1 1.8-.7 2.7-1c.9-.4 1.8-.7 2.7-1.1s1.8-.7 2.7-1.1 1.8-.8 2.7-1.2 1.8-.8 2.7-1.2 1.8-.8 2.8-1.2c.9-.4 1.8-.8 2.8-1.3.9-.4 1.8-.9 2.8-1.3.9-.4 1.8-.9 2.8-1.3.9-.4 1.9-.9 2.8-1.4.1 0 .2-.1.2-.1 2.9 4.5 8.7 13.5 14.4 24.4 8.2 15.6 21.8 13.7 37.1 5.2 14.3-8.6 13.2-24.6 13.2-24.6z" fill="#4f2500"/><path d="m194.1 96.1v-21.2h9.1c1.7 0 3 .2 3.9.5s1.6 1 2.2 1.9c.5.9.8 2.1.8 3.4 0 1.2-.2 2.2-.6 3-.4.9-1 1.5-1.7 2.1-.5.3-1.1.6-1.9.8.7.3 1.1.5 1.4.8.2.2.5.5.9 1.1s.6 1 .8 1.3l2.6 6.2h-6.2l-2.9-6.5c-.4-.8-.7-1.4-1-1.6-.4-.3-.8-.5-1.3-.5h-.5v8.6h-5.6zm5.5-12.6h2.3c.2 0 .7-.1 1.4-.3.4-.1.7-.3.9-.7s.3-.8.3-1.2c0-.7-.2-1.2-.5-1.6-.4-.4-1-.6-2-.6h-2.4z" fill="#fff"/><path d="m224.2 92.6h-6.2l-.9 3.5h-5.6l6.6-21.2h6l6.6 21.2h-5.7zm-1.2-4.6-2-7.6-1.9 7.6z" fill="#fff"/><path d="m232.5 74.9h5.1l6.7 11.7v-11.7h5.2v21.2h-5.2l-6.6-11.7v11.7h-5.1v-21.2z" fill="#fff"/><path d="m264.9 87.5 4.8 1.7c-.3 1.6-.8 3-1.5 4-.7 1.1-1.6 1.9-2.6 2.4-1 .6-2.3.8-3.9.8-1.9 0-3.5-.3-4.7-1s-2.3-1.8-3.2-3.5-1.3-3.8-1.3-6.5c0-3.5.8-6.2 2.3-8.1 1.6-1.9 3.8-2.8 6.6-2.8 2.2 0 4 .5 5.3 1.6s2.2 2.7 2.8 5l-4.8 1.3c-.2-.6-.3-1.1-.5-1.4-.3-.5-.7-.9-1.1-1.2s-.9-.4-1.5-.4c-1.2 0-2.2.6-2.8 1.8-.5.9-.7 2.3-.7 4.2 0 2.4.3 4 .9 4.8.6.9 1.4 1.3 2.5 1.3 1 0 1.8-.4 2.4-1.1.3-.6.7-1.6 1-2.9z" fill="#fff"/><path d="m272.3 74.9h5.5v7.4h6v-7.4h5.5v21.2h-5.5v-8.6h-6v8.6h-5.5z" fill="#fff"/><path d="m293.1 74.9h5.5v21.2h-5.5z" fill="#fff"/><path d="m387.4 243.3-6.2 3.1c-.9.4-1.8.9-2.7 1.3s-1.8.9-2.7 1.3-1.8.8-2.7 1.3c-.9.4-1.8.8-2.7 1.2s-1.8.8-2.7 1.2-1.8.8-2.7 1.2-1.8.8-2.7 1.1c-.9.4-1.8.7-2.7 1.1s-1.8.7-2.7 1.1c-.9.3-1.8.7-2.7 1s-1.8.7-2.6 1c-.9.3-1.8.6-2.6 1-.9.3-1.8.6-2.6.9-.9.3-1.8.6-2.6.9-.9.3-1.8.6-2.6.9-.9.3-1.7.6-2.6.8-.9.3-1.7.6-2.6.8-.9.3-1.7.5-2.6.8s-1.7.5-2.6.8-1.7.5-2.6.7-1.7.5-2.6.7-1.7.5-2.6.7-1.7.4-2.6.7c-.9.2-1.7.4-2.6.6-.8.2-1.7.4-2.6.6-.8.2-1.7.4-2.6.6s-1.7.4-2.6.6-1.7.4-2.6.5c-.8.2-1.7.3-2.5.5s-1.7.3-2.5.5-1.7.3-2.5.5c-.8.1-1.7.3-2.5.4s-1.7.3-2.5.4-1.7.3-2.5.4-1.7.2-2.5.4c-.8.1-1.7.2-2.5.3s-1.7.2-2.5.3-1.7.2-2.5.3-1.7.2-2.5.3-1.7.2-2.5.3-1.7.2-2.5.2c-.8.1-1.7.1-2.5.2s-1.7.1-2.5.2-1.7.1-2.5.2-1.7.1-2.5.1c-.8.1-1.7.1-2.5.1s-1.7.1-2.5.1-1.7.1-2.5.1-1.7.1-2.5.1-1.7 0-2.5.1c-.8 0-1.7 0-2.5 0s-1.7 0-2.5 0-1.7 0-2.5 0-1.7 0-2.5 0-1.7 0-2.5-.1c-.8 0-1.7 0-2.5-.1-.8 0-1.7-.1-2.5-.1s-1.7-.1-2.5-.1-1.7-.1-2.5-.1-1.7-.1-2.5-.1c-.8-.1-1.7-.1-2.5-.2s-1.7-.1-2.5-.2-1.7-.1-2.5-.2-1.7-.2-2.5-.2c-.8-.1-1.7-.2-2.5-.3s-1.7-.2-2.5-.3-1.7-.2-2.5-.3-1.7-.2-2.5-.3-1.7-.2-2.5-.3-1.7-.2-2.5-.4c-.8-.1-1.7-.3-2.5-.4s-1.7-.3-2.5-.4-1.7-.3-2.5-.4-1.7-.3-2.5-.5-1.7-.3-2.5-.5-1.7-.3-2.5-.5-1.7-.4-2.6-.5c-.8-.2-1.7-.4-2.6-.6-.8-.2-1.7-.4-2.6-.6s-1.7-.4-2.6-.6-1.7-.4-2.6-.6-1.7-.4-2.6-.7c-.9-.2-1.7-.5-2.6-.7s-1.7-.5-2.6-.7-1.7-.5-2.6-.7-1.7-.5-2.6-.8-1.7-.5-2.6-.8-1.7-.5-2.6-.8-1.7-.6-2.6-.8c-.9-.3-1.7-.6-2.6-.9s-1.8-.6-2.6-.9c-.9-.3-1.8-.6-2.6-.9-.9-.3-1.8-.6-2.6-1-.9-.3-1.8-.7-2.6-1-.9-.3-1.8-.7-2.7-1s-1.8-.7-2.7-1.1-1.8-.7-2.7-1.1-1.8-.7-2.7-1.1-1.8-.8-2.7-1.2-1.8-.8-2.7-1.2-1.8-.8-2.7-1.2-1.8-.8-2.7-1.3c-.9-.4-1.8-.9-2.7-1.3s-1.8-.9-2.7-1.3l-6.3-3.2v.1c-13.8-6.7-28.6-15.5-32.6-17.9l16.1-22.4c.8.6 1.7 1.2 2.5 1.7 1 .7 1.9 1.3 2.9 2 1 .6 1.9 1.3 2.9 1.9s1.9 1.2 2.9 1.8 1.9 1.2 2.9 1.8 1.9 1.2 2.9 1.7c1 .6 1.9 1.1 2.9 1.7s1.9 1.1 2.9 1.6 1.9 1.1 2.9 1.6 1.9 1 2.9 1.5 1.9 1 2.9 1.5 1.9 1 2.9 1.4c1 .5 1.9.9 2.9 1.4s1.9.9 2.8 1.4c1 .4 1.9.9 2.8 1.3s1.9.9 2.8 1.3 1.9.8 2.8 1.2 1.9.8 2.8 1.2 1.9.8 2.8 1.1c.9.4 1.9.7 2.8 1.1s1.9.7 2.8 1.1c.9.3 1.9.7 2.8 1s1.9.7 2.8 1 1.9.6 2.8 1c.9.3 1.8.6 2.8.9.9.3 1.8.6 2.8.9.9.3 1.8.6 2.8.8.9.3 1.8.6 2.8.8.9.3 1.8.5 2.7.8s1.8.5 2.7.7 1.8.5 2.7.7 1.8.5 2.7.7 1.8.4 2.7.7c.9.2 1.8.4 2.7.6s1.8.4 2.7.6 1.8.4 2.7.6 1.8.4 2.7.5c.9.2 1.8.3 2.7.5s1.8.3 2.7.5 1.8.3 2.7.4 1.8.3 2.7.4 1.8.3 2.7.4 1.8.3 2.7.4l2.7.3c.9.1 1.8.2 2.6.3.9.1 1.8.2 2.6.3.9.1 1.8.2 2.6.3.9.1 1.8.2 2.6.2.9.1 1.8.1 2.6.2.9.1 1.8.1 2.6.2.9.1 1.8.1 2.6.2.9 0 1.8.1 2.6.1.9 0 1.8.1 2.6.1.9 0 1.8.1 2.6.1.9 0 1.8 0 2.6.1h2.6 2.6 2.6 2.6c.9 0 1.7 0 2.6-.1.9 0 1.8-.1 2.6-.1.9 0 1.8-.1 2.6-.1.9 0 1.8-.1 2.6-.1.9-.1 1.8-.1 2.6-.2.9-.1 1.8-.1 2.6-.2.9-.1 1.8-.1 2.6-.2.9-.1 1.8-.2 2.6-.2.9-.1 1.8-.2 2.6-.3.9-.1 1.8-.2 2.6-.3.9-.1 1.8-.2 2.7-.3s1.8-.2 2.7-.3 1.8-.2 2.7-.4c.9-.1 1.8-.3 2.7-.4s1.8-.3 2.7-.4 1.8-.3 2.7-.4c.9-.2 1.8-.3 2.7-.5s1.8-.3 2.7-.5 1.8-.4 2.7-.5c.9-.2 1.8-.4 2.7-.6s1.8-.4 2.7-.6 1.8-.4 2.7-.6 1.8-.4 2.7-.7c.9-.2 1.8-.5 2.7-.7s1.8-.5 2.7-.7 1.8-.5 2.7-.7c.9-.3 1.8-.5 2.7-.8s1.8-.5 2.8-.8c.9-.3 1.8-.6 2.8-.8.9-.3 1.8-.6 2.8-.9.9-.3 1.8-.6 2.8-.9.9-.3 1.8-.6 2.8-1 .9-.3 1.9-.7 2.8-1s1.9-.7 2.8-1c.9-.4 1.9-.7 2.8-1.1s1.9-.7 2.8-1.1 1.9-.8 2.8-1.1c.9-.4 1.9-.8 2.8-1.2s1.9-.8 2.8-1.2 1.9-.8 2.8-1.3c1-.4 1.9-.9 2.8-1.3s1.9-.9 2.8-1.4c1-.5 1.9-.9 2.9-1.4s1.9-1 2.9-1.4c1-.5 1.9-1 2.9-1.5s1.9-1 2.9-1.5 1.9-1 2.9-1.6c1-.5 1.9-1.1 2.9-1.6 1-.6 1.9-1.1 2.9-1.7s1.9-1.1 2.9-1.7 1.9-1.2 2.9-1.8 1.9-1.2 2.9-1.8 1.9-1.3 2.9-1.9 1.9-1.3 2.9-2c.8-.6 1.6-1.1 2.4-1.7l16.3 22.5c-3.3 2-18.4 11.1-32.5 17.9zm-308.4 8.7c-.8 1.7.3 7 14.2 13.6 4-7.1 7.7-12.9 10-16.4-1.2-.6-8.3-4.3-16.1-8.5zm-6.3 4.1c-1.4-4 .4-6.7.6-6.9l8.3-11.5c-4.1-2.3-8.1-4.7-11-6.7l-19.7 27.2c.2 3.5 1.6 12.6 11 17.9 6.6 3.7 12 5.5 16.2 5.5 3.1 0 7.2-.9 11-8.2.4-.8.9-1.7 1.3-2.5-10-4.7-16-9.7-17.7-14.8zm344.8-4.1-8.6-12c-7.8 4.3-15.4 8.3-17.5 9.3 2.4 3.7 6.2 9.7 10.3 17 15.4-6.8 16.7-12.5 15.8-14.3zm6.6-20.9c-2.6 1.7-6 3.8-9.6 5.9l8.8 12.2c.2.3 1.9 2.9.6 6.9-1.8 5.4-8.3 10.6-19.3 15.5.3.6.6 1.2.9 1.8 3.8 7.3 7.9 8.2 11 8.2 4.1 0 9.6-1.9 16.2-5.5 9.5-5.3 10.9-14.4 11-17.9z" fill="#fdb515"/><path d="m98.3 213.1c.8.5 1.5 1 2.1 1.4s1.2.8 1.9 1.2c.6.4 1.3.8 2.2 1.3-.3 1-.6 1.9-.8 2.8s-.5 1.6-.7 2.4-.4 1.5-.6 2.3-.4 1.6-.7 2.4c-.2.9-.5 1.8-.7 2.8 1-.6 1.9-1.1 2.7-1.7.8-.5 1.6-1 2.3-1.4.7-.5 1.5-.9 2.2-1.4s1.5-.9 2.3-1.5c.8-.5 1.7-1.1 2.6-1.7.8.5 1.5.8 2.2 1.2.6.4 1.2.7 1.9 1 .6.3 1.3.7 2.2 1.1-.9.5-1.7 1-2.5 1.5s-1.5.9-2.3 1.3c-.7.4-1.4.8-2.1 1.2s-1.4.8-2 1.2c-.7.4-1.4.8-2.1 1.2s-1.4.8-2.1 1.2-1.5.8-2.3 1.3c-.8.4-1.7.9-2.6 1.4-.9-.5-1.7-1-2.5-1.4-.7-.4-1.4-.8-2.1-1.2s-1.5-.9-2.4-1.4c.2-.9.3-1.8.5-2.6s.3-1.6.5-2.4.3-1.5.5-2.2c.1-.7.3-1.4.4-2.1.2-.7.3-1.4.5-2.1s.3-1.4.5-2.2c.2-.7.4-1.5.6-2.3 0-.8.2-1.7.4-2.6z" fill="#4f2500"/><path d="m121.6 226.6c.8.4 1.5.8 2.2 1.1.6.3 1.2.6 1.9.9.6.3 1.3.7 2.2 1.1-.5.8-1 1.6-1.5 2.4-.5.7-.9 1.5-1.4 2.1-.4.7-.8 1.3-1.3 2-.4.6-.8 1.3-1.2 1.9s-.8 1.3-1.3 2c-.4.7-.9 1.4-1.4 2.1s-1 1.5-1.5 2.4c-.9-.4-1.6-.8-2.3-1.1s-1.3-.7-2-1c-.7-.4-1.4-.7-2.3-1.2.6-.8 1.1-1.6 1.6-2.4.5-.7 1-1.4 1.4-2.1s.9-1.3 1.3-1.9.9-1.3 1.3-1.9.9-1.3 1.3-1.9c.5-.7.9-1.4 1.4-2.1.5-.8 1-1.6 1.6-2.4z" fill="#4f2500"/><path d="m123.3 246.8c.5-.9 1-1.7 1.5-2.4.5-.8.9-1.5 1.3-2.2s.8-1.3 1.2-2 .8-1.3 1.2-1.9.8-1.3 1.2-2 .8-1.4 1.3-2.2.9-1.6 1.5-2.4c1 .5 2 .9 2.8 1.3.9.4 1.7.7 2.5 1.1.8.3 1.6.7 2.5 1 .9.4 1.8.7 2.9 1.2 1 .4 1.9.8 2.6 1.1.7.4 1.3.7 1.8 1s.9.7 1.2 1.1.5.8.7 1.3.2.9.2 1.4-.2 1-.4 1.5c-.4.9-1 1.5-1.9 2-.4.2-.9.4-1.3.5-.5.1-1 .2-1.5.2-.7 0-2.7-.3-2.7-.3s1.2.9 1.5 1.2c.2.2.4.6.7 1.2s.4 1 .5 1.3c.1.8.3 1.4.4 2s.2 1.2.3 1.8.3 1.2.4 2c-1.1-.4-1.9-.7-2.8-1-.8-.3-1.6-.6-2.4-.9s-1.7-.7-2.7-1.1c-.2-.8-.3-1.5-.4-2.1s-.2-1.2-.3-1.9c-.1-.6-.2-1.3-.4-2.2-.1-.8-.3-1.4-.6-1.7-.3-.4-.8-.8-1.4-1-.2-.1-.4-.1-.6-.3-.5.8-.9 1.5-1.2 2.2-.4.6-.7 1.2-1.1 1.9-.4.6-.8 1.3-1.2 2.2-.9-.4-1.7-.7-2.4-1s-1.4-.6-2.1-.9c-1.1-.2-1.9-.6-2.8-1zm12-6c.6.2 1 .4 1.4.6s.8.3 1.4.6c.3.1.9.3 1.9.5.5.1.9.1 1.3-.1.4-.1.7-.4.9-.7.3-.5.3-1 0-1.4s-1-.9-2.2-1.4c-.6-.2-1-.4-1.4-.6s-.9-.4-1.4-.6c-.4.6-.6 1.1-.9 1.5-.4.5-.7.9-1 1.6z" fill="#4f2500"/><path d="m153.2 240.2c1 .3 1.9.7 2.8 1s1.7.6 2.5.9 1.6.5 2.4.8 1.5.5 2.3.7 1.5.5 2.3.7 1.6.5 2.4.7 1.7.5 2.6.7c.9.3 1.9.5 2.9.8-.3.8-.5 1.4-.7 2s-.4 1.2-.7 2c-.9-.3-1.7-.5-2.4-.7s-1.4-.4-2.1-.6-1.5-.4-2.4-.7c-.4 1-.7 1.8-1.1 2.6-.3.8-.6 1.6-.9 2.3s-.6 1.4-.9 2.2c-.3.7-.6 1.5-.9 2.3s-.7 1.7-1.1 2.6c-1-.3-1.7-.5-2.5-.8-.7-.2-1.4-.4-2.2-.7-.7-.2-1.5-.5-2.5-.8.4-1 .8-1.8 1.2-2.6s.7-1.5 1-2.3c.3-.7.6-1.4 1-2.2.3-.7.6-1.5 1-2.3s.7-1.7 1.2-2.6c-.9-.3-1.7-.6-2.4-.8s-1.4-.5-2.1-.7-1.5-.5-2.4-.8c.4-.8.6-1.4.9-1.9.1-.5.4-1 .8-1.8z" fill="#4f2500"/><path d="m190.5 250.6c.9.2 1.7.3 2.4.5.7.1 1.4.3 2.1.4s1.5.3 2.4.4c-.2 1-.5 1.9-.7 2.7s-.4 1.5-.6 2.3c-.2.7-.4 1.5-.6 2.3s-.4 1.7-.6 2.7c-.1.5-.3 1-.5 1.4s-.5.9-.8 1.3-.7.7-1.1 1.1c-.4.3-.9.6-1.5.8-.5.2-1.1.4-1.6.6-.5.1-1.1.2-1.6.2-.8 0-1.6 0-2.5-.1s-1.8-.2-2.8-.5c-.6-.1-1.2-.3-1.8-.4-.6-.2-1.3-.4-1.9-.6-.7-.2-1.3-.4-1.8-.7-.5-.2-1-.5-1.4-.8s-.8-.6-1.1-.9-.6-.7-.9-1.1c-.5-.8-.8-1.5-.9-2.3 0-.6 0-1.1 0-1.6.1-.5.1-.9.3-1.3.3-1 .6-1.8.9-2.6s.5-1.5.8-2.2.5-1.5.8-2.2c.3-.8.6-1.6.9-2.6.9.2 1.6.4 2.3.6s1.3.3 2 .5 1.4.3 2.3.6c-.3 1-.6 1.9-.8 2.7-.3.8-.5 1.6-.7 2.3-.2.8-.5 1.5-.7 2.3-.3.8-.5 1.7-.8 2.7-.3.9-.2 1.7.4 2.3.3.3.6.6 1.1.9.4.2 1 .4 1.6.6.6.1 1.2.2 1.7.2s1-.1 1.4-.3c.8-.4 1.4-1 1.6-1.9.3-1 .5-1.9.8-2.7.2-.8.4-1.6.6-2.3.2-.8.4-1.5.6-2.3.1-1.1.4-2 .7-3z" fill="#4f2500"/><path d="m198 263.7c.9.1 1.7.2 2.4.3s1.4.2 2.1.2c.7.1 1.5.2 2.4.3 0 .8.2 1.5.6 2 .3.4.7.7 1.2 1 .5.2 1.1.4 1.8.5 1 .1 1.9.1 2.5-.2s1-.6 1-1.1c.1-.4-.1-.9-.6-1.3-.2-.2-.7-.4-1.2-.7s-1.4-.5-2.3-.8c-1-.3-1.9-.6-2.7-1-.8-.3-1.5-.7-2.1-1s-1.1-.7-1.5-1c-.6-.5-1-1.1-1.2-1.7s-.2-1.2-.1-1.9c.1-.4.3-.8.5-1.2.3-.4.6-.7 1-1.1.4-.3.9-.6 1.5-.8s1.2-.4 1.9-.5 1.5-.2 2.5-.1c.9 0 2 .1 3.1.3.9.1 1.8.3 2.6.5s1.5.4 2.1.7 1.2.5 1.6.9c.7.5 1.2 1.1 1.6 1.7.4.7.6 1.5.6 2.4-.9 0-1.6-.1-2.3-.1s-1.3-.1-2-.1-1.4-.1-2.3-.2c-.1-.8-.3-1.4-.8-1.8s-1.2-.7-2.2-.8c-.8-.1-1.4-.1-1.9.1s-.7.5-.8.8.1.5.4.8 1 .6 2.2.9c1 .3 1.9.6 2.7.8.8.3 1.5.5 2.1.8.6.2 1.1.5 1.6.7.6.3 1.2.7 1.6 1 .4.4.8.7 1.1 1.1s.4.8.5 1.3c.1.4.1.9.1 1.3-.1.5-.2 1.1-.5 1.5-.3.5-.7.9-1.1 1.3-.5.4-1 .8-1.7 1-.6.3-1.4.5-2.2.6s-1.7.2-2.7.2-2.1-.1-3.2-.2c-1.4-.2-2.6-.4-3.6-.7-1.1-.3-2-.6-2.7-1s-1.3-.8-1.8-1.2c-.7-.7-1.1-1.4-1.4-2.2-.4-.6-.5-1.4-.4-2.3z" fill="#4f2500"/><path d="m234.6 256.3c1.1.1 2 .1 3 .1.9 0 1.8.1 2.7.1.8 0 1.7 0 2.5.1h2.4 2.5 2.7 3v1.8 1.8c-1.2 0-2.2 0-3.2 0s-1.8 0-2.7 0-1.8 0-2.7 0c-1 0-2 0-3.2-.1v1.4 1.3c1.1 0 2.1.1 3 .1h2.6 2.6 3v1.7 1.7c-1.1 0-2.1 0-3 0s-1.8 0-2.6 0-1.7 0-2.6 0-1.9 0-3-.1c0 .7 0 1.2-.1 1.7 0 .5 0 1-.1 1.7 1 0 1.9 0 2.8.1h2.4 2.3 2.4 2.8v1.9 1.9c-1.2 0-2.2 0-3.3 0-1 0-2 0-2.9 0s-1.8 0-2.7 0-1.7 0-2.6 0-1.8 0-2.7-.1c-.9 0-1.9-.1-2.9-.1s-2.1-.1-3.3-.1c.1-1 .1-1.9.2-2.7.1-.9.1-1.7.2-2.4 0-.8.1-1.5.1-2.2s.1-1.5.1-2.2c.1-.7.1-1.5.1-2.2.1-.8.1-1.6.2-2.4-.1-1 0-1.9 0-2.8z" fill="#4f2500"/><path d="m255.7 256.6c1.2 0 2.3-.1 3.4-.1s2-.1 3-.1 1.9-.1 2.8-.1c.9-.1 1.8-.1 2.7-.2s1.8-.1 2.8-.2 1.9-.1 3-.2 2.2-.2 3.4-.3c.1.8.2 1.5.3 2.1s.2 1.2.3 2.1c-1 .1-1.8.2-2.5.2-.7.1-1.4.1-2.2.2-.7.1-1.5.1-2.5.2.1 1 .2 1.9.3 2.8s.2 1.7.2 2.4c.1.8.1 1.5.2 2.3s.1 1.6.2 2.4c.1.9.2 1.8.3 2.8-1 .1-1.8.1-2.6.2s-1.5.1-2.3.1-1.6.1-2.6.1c-.1-1-.1-1.9-.2-2.8s-.1-1.7-.2-2.4c0-.8-.1-1.5-.1-2.3-.1-.8-.1-1.6-.2-2.4-.1-.9-.1-1.8-.2-2.8-1 0-1.8.1-2.5.1s-1.4.1-2.2.1c-.7 0-1.5 0-2.5.1 0-.8 0-1.5-.1-2.1 0-.8 0-1.4 0-2.2z" fill="#4f2500"/><path d="m290.2 253.7c.9-.1 1.7-.2 2.4-.3s1.4-.2 2.1-.3 1.5-.2 2.4-.4c.2 1 .4 1.9.6 2.8.2.8.4 1.6.5 2.4.2.8.3 1.5.5 2.3s.3 1.5.5 2.4c.2.8.4 1.7.6 2.8 1.1-.2 2.1-.4 3-.5.9-.2 1.8-.3 2.6-.5s1.7-.3 2.6-.5 1.9-.4 3-.6c.2.8.4 1.4.6 2s.3 1.2.6 2c-1.1.2-2.1.4-3 .6s-1.8.4-2.7.5c-.9.2-1.7.3-2.5.5-.8.1-1.6.3-2.4.4s-1.6.3-2.5.4-1.8.3-2.7.4-2 .3-3 .4c-.2-1-.4-1.8-.5-2.7-.2-.8-.3-1.6-.5-2.4-.1-.8-.3-1.5-.4-2.2s-.3-1.4-.4-2.2c-.1-.7-.3-1.5-.4-2.2-.1-.8-.3-1.6-.5-2.4-.1-.8-.3-1.7-.5-2.7z" fill="#4f2500"/><path d="m329 260.3c-1.1.3-2 .5-2.8.7s-1.6.4-2.5.6c-.8.2-1.7.4-2.8.7-.1.6-.1 1-.1 1.5 0 .4-.1.9-.1 1.5-1 .2-1.8.4-2.6.6s-1.5.3-2.3.5-1.6.3-2.6.6c.2-.9.4-1.8.6-2.6s.4-1.6.5-2.3c.2-.7.3-1.5.4-2.2s.3-1.4.4-2.1.3-1.4.4-2.1.3-1.4.4-2.2c.1-.7.3-1.5.4-2.3s.3-1.7.4-2.6c1-.2 1.8-.4 2.5-.6.8-.2 1.5-.4 2.2-.6.8-.2 1.6-.4 2.5-.7.7.7 1.4 1.4 2 2s1.2 1.2 1.8 1.8 1.1 1.1 1.7 1.6 1.1 1 1.6 1.6c.6.5 1.1 1 1.7 1.5s1.1 1.1 1.7 1.6c.6.6 1.2 1.1 1.9 1.7s1.4 1.2 2.1 1.9c-1 .3-1.8.5-2.6.8-.8.2-1.5.4-2.3.7-.8.2-1.6.5-2.6.7-.4-.5-.7-.8-1.1-1.2 0-.3-.3-.7-.8-1.1zm-2.7-3.2c-.6-.7-1.1-1.3-1.6-1.8s-.9-1-1.4-1.6c-.5-.5-1-1.1-1.5-1.8-.1.9-.1 1.6-.2 2.3 0 .7-.1 1.3-.1 2s-.1 1.4-.2 2.3c1-.2 1.7-.4 2.5-.6.8-.3 1.5-.5 2.5-.8z" fill="#4f2500"/><path d="m334.3 243.8c1-.3 1.9-.6 2.7-.9s1.6-.5 2.3-.8c.7-.2 1.5-.5 2.2-.8s1.5-.5 2.3-.8 1.7-.6 2.7-1 1.9-.6 2.8-.7 1.7-.1 2.4.1 1.4.4 1.9.8.9.8 1.2 1.3c.2.5.4.9.4 1.4s-.1.9-.3 1.4c-.3.6-1.8 1.9-1.8 1.9s1.6-.2 2.3-.2 1.3.1 1.8.3 1 .4 1.4.8c.4.3.7.8 1 1.2.4.8.5 1.6.3 2.5-.1.4-.3.8-.5 1.2s-.5.8-.9 1.1c-.5.5-1.3 1-2.4 1.5-.7.4-1.4.7-1.9.9s-.9.4-1.1.5c-1 .3-1.8.7-2.7.9-.8.3-1.6.6-2.3.8-.7.3-1.5.5-2.2.7-.7.3-1.5.5-2.3.8s-1.7.6-2.7.9c-.4-.9-.7-1.8-1.1-2.6-.3-.8-.6-1.6-1-2.3-.3-.7-.6-1.4-.9-2.1s-.6-1.4-.9-2.1-.6-1.4-.9-2.1-.6-1.5-1-2.3c-.1-.6-.4-1.4-.8-2.3zm9.5 4c.6-.2 1-.4 1.5-.5.4-.2.9-.3 1.5-.5 1-.4 1.7-.8 2-1.2s.3-.9.1-1.3c-.2-.5-.6-.7-1.1-.8s-1.3 0-2.3.4c-.6.2-1 .4-1.5.5-.4.2-.9.3-1.5.5.3.6.5 1 .7 1.5.1.4.3.8.6 1.4zm2.8 6.2c.7-.2 1.2-.4 1.8-.6.5-.2 1.1-.4 1.8-.6 1.2-.4 2-.9 2.3-1.4s.4-1 .1-1.5c-.2-.5-.7-.7-1.3-.8s-1.5.1-2.7.5c-.7.2-1.2.4-1.7.6s-1 .4-1.7.6c.3.6.5 1.1.7 1.6s.4 1 .7 1.6z" fill="#4f2500"/><path d="m360.6 243.5c-.5-.8-.8-1.7-.9-2.5-.2-.8-.2-1.6-.1-2.3.1-.8.3-1.5.7-2.2.3-.6.6-1.1 1-1.6s.9-1 1.4-1.4c.6-.5 1.2-.9 1.9-1.3s1.4-.8 2.3-1.2c.8-.4 1.7-.7 2.5-1s1.6-.5 2.3-.6c.8-.1 1.5-.2 2.2-.3.7 0 1.4 0 2.1.1.9.1 1.7.4 2.5.7s1.5.8 2.2 1.4 1.3 1.2 1.8 2c.6.8 1 1.7 1.3 2.5s.4 1.6.3 2.4c0 .8-.2 1.5-.6 2.2-.3.7-.8 1.5-1.4 2.2-.4.5-.9.9-1.4 1.4-.5.4-1.1.9-1.8 1.3s-1.4.8-2.2 1.2-1.6.7-2.4 1-1.5.5-2.2.6c-.7.2-1.4.3-2 .3-1 .1-1.9 0-2.8-.1-.9-.2-1.8-.4-2.6-.8-.6-.3-1.1-.6-1.5-.9-.5-.4-.9-.8-1.3-1.3-.6-.6-1-1.2-1.3-1.8zm6.6-2.7c.4.8.9 1.4 1.5 1.8.5.5 1.1.8 1.7.9.6.2 1.2.2 1.9.1s1.3-.3 2-.6 1.3-.7 1.8-1.1.8-.9 1-1.4.2-1.1 0-1.8-.5-1.4-1.1-2.2c-.4-.7-.9-1.3-1.5-1.7-.5-.4-1.1-.7-1.7-.8s-1.2-.2-1.8-.1-1.3.3-2 .6c-.6.3-1.2.6-1.6 1s-.7.9-.9 1.4-.2 1.1-.1 1.7c.1.7.4 1.4.8 2.2z" fill="#4f2500"/><path d="m391.2 238.8c-.6-.8-1.1-1.6-1.7-2.3-.5-.7-1-1.4-1.5-2.1s-.9-1.3-1.4-1.9c-.4-.6-.9-1.2-1.3-1.9-.4-.6-.9-1.3-1.4-1.9-.5-.7-1-1.3-1.5-2.1-.5-.7-1.1-1.5-1.7-2.3 1-.5 1.9-1 2.7-1.5.8-.4 1.6-.9 2.3-1.3.8-.4 1.5-.9 2.3-1.3.8-.5 1.7-1 2.7-1.6.9-.5 1.8-1 2.5-1.4s1.4-.6 2-.8 1.1-.3 1.7-.3 1.1 0 1.7.1 1.1.3 1.5.6c.5.3.9.6 1.3 1.1.6.8 1 1.6 1 2.4 0 .4-.1.8-.2 1.3-.1.4-.3.9-.6 1.3-.3.6-1.7 1.9-1.7 1.9s1.5-.4 2-.5c.3 0 .9 0 1.6.1s1.3.2 1.6.3c.8.3 1.6.5 2.2.7.7.2 1.3.4 1.9.6.7.2 1.4.4 2.2.7-.9.6-1.7 1.1-2.5 1.6-.7.5-1.4.9-2.2 1.4-.7.5-1.5 1-2.5 1.5-.9-.3-1.7-.5-2.4-.8-.7-.2-1.4-.4-2.1-.7-.7-.2-1.5-.5-2.4-.8s-1.5-.5-2-.4c-.6 0-1.2.2-1.8.6-.2.1-.3.2-.6.3.6.8 1.1 1.4 1.5 2s.9 1.1 1.3 1.7c.5.6.9 1.2 1.5 2-.9.5-1.6.9-2.3 1.3s-1.3.7-2 1.1c-.1.5-.9.8-1.7 1.3zm.1-12.1c.5-.3.9-.5 1.3-.7s.8-.5 1.3-.8c.3-.2.8-.6 1.5-1.2.4-.3.6-.6.6-1 .1-.4 0-.7-.3-1-.4-.5-.8-.7-1.4-.7s-1.4.3-2.6 1c-.5.3-.9.5-1.3.8-.4.2-.8.5-1.3.8.4.6.8 1 1.1 1.4.4.4.7.9 1.1 1.4z" fill="#4f2500"/><path d="m356.2 186h-13.3l9.4-9.3-9.5-9.6-9.4 9.4v-13.3h-13.5v13.3l-9.3-9.4-9.6 9.6 9.4 9.3h-13.3v13.5h13.3l-9.4 9.4 9.6 9.5 9.3-9.4v13.3h13.5v-13.3l9.4 9.4 9.5-9.5-9.4-9.4h13.3z" fill="#734b00"/><circle cx="327" cy="193.5" fill="#fff" r="22" stroke="#734b00" stroke-miterlimit="10" stroke-width=".3805"/><path d="m323.3 176.4h7v36.4h-7z" fill="#734b00"/><path d="m311.4 186.5h29.7v7.3h-29.7z" fill="#734b00"/><path d="m224.4 237.7s3.3-10 3.6-20-3.3-11.8-3.3-11.8l-23.9 26.7s6.7-22.1 27-36c-.1-.1 11.3 22-3.4 41.1z" fill="#009055"/><path d="m224.4 237.7s6.7-16.1 18.2-24.8c11.5-8.8 13-6.1 13.3-.6s-3.6 28.8-3.6 28.8 1.8-22.7-1.2-25.4c-3.1-2.8-26.7 22-26.7 22z" fill="#009055"/><path d="m267.1 227.1s-2.4-30.3-7.9-30.6-29.1 31.8-29.1 31.8 17.9-33.9 31.2-40.9c0 .1 12.3 15.3 5.8 39.7z" fill="#009055"/><path d="m277.1 206.5s-.9-24.5-3.3-26.7c-2.4-2.1-12.4 7.6-12.4 7.6s10.9-12.4 14.8-13.6 6.6 17.9.9 32.7z" fill="#009055"/><path d="m239.2 214.1s0-23.6-9.4-32.4-1.5 1.5-1.5 1.5 10.3 8.5 9.1 34.2z" fill="#009055"/><path d="m243.1 204.7s7.6-33.9 0-42.4l-14.5 12.7s8.5-15.8 17.3-17.9c0 .1 6 23.4-2.8 47.6z" fill="#009055"/><path d="m246.2 199s12.4-17.3 42.4-33.3l-1.2-2.1s-30.6 18.2-42.4 35.1z" fill="#009055"/><path d="m285.3 136.7-36.4 50.2-3 6.4-.6 3s33-48.5 41.8-59.1z" fill="#009055"/><path d="m281.5 124.9s-5.8 4.6.3 8.7c0 0-3.7 4.3-1.7 7.1 2.1 2.8 4.7 2.4 4.7 2.4s1.1 3.7 3.8 4.1c2.6.4 4.5-2.8 4.5-2.8s3.9 2.5 6.3 1.5 2.4-3.9 2.4-3.9 4.6-1.4 4.3-5.5c-.3-4-3.8-2.2-3.8-2.2s3.6-2.8 2.7-6-3.3-6.7-6.5-7-4.8 4.1-4.8 4.1-1.8-5.4-6.3-5.9c-4.7-.4-5.9 5.4-5.9 5.4z" fill="#754e00"/><path d="m289.8 130.2s2.5.4 2.1-1.9-3.4-6.8-6.8-5.1c0 0-2.1 1.6-1.3 3.2 0 0-1.9 1-2.6 2.8-.6 1.8 6.9 5.9 7.6 4.1s-2.1-4.2-1.9-4.7c.1-.4 2.9 1.6 2.9 1.6z" fill="#fff"/><path d="m293.4 130.5s3.6-1.3 4.2-1.1-3.1 2.1-2.9 2.9c.3.8 7.6.8 8.3-.9.6-1.7-1.1-2.9-1.1-2.9s-.3-3.3-2.6-4.3c-2.4-1.1-5.7 2.7-5.9 6.3z" fill="#fff"/><path d="m295.5 135s2.8 3.3 2.5 3.7-3.9-3-3.9-3-1.4 7.3.7 8.1c2 .7 5.3-1.4 5.7-3.5 0 0 3-.8 3.5-2.3.5-1.4-4.8-4.5-8.5-3z" fill="#fff"/><path d="m289.5 136.6s-1-1.8-4.2.1c-3.3 1.8-3.4 4.2.5 5.4 0 0 1.1.2 1.3 1.2.1.9 2.6 2 3.7 1.1 1.1-.8 1.7-7.7 1.2-7.9-.5-.3-2.7 2.6-3.2 2.8-.6.1.7-2.7.7-2.7z" fill="#fff"/><path d="m293.7 134.2c-.3.8-1.4 1.1-2.4.8-1-.4-1.6-1.3-1.4-2.1.3-.8 1.4-1.1 2.4-.8 1.1.3 1.7 1.3 1.4 2.1z" fill="#fff"/><path d="m283.8 153.7s-6.6 2.8-1.9 8.2c0 0-4.6 3.1-3.3 6.2 1.2 3.1 3.8 3.4 3.8 3.4s.1 3.8 2.5 4.8 4.9-1.5 4.9-1.5 3 3.4 5.5 3 3.3-3.1 3.3-3.1 4.6-.2 5.4-4c.7-3.9-3-3.1-3-3.1s4.1-1.7 4.1-4.9-1.4-7.1-4.4-8.2-5.5 2.6-5.5 2.6-.3-5.6-4.4-7.1c-4.4-1.5-7 3.7-7 3.7z" fill="#754e00"/><path d="m290.3 160.7s2.3 1 2.4-1.3c.2-2.2-1.5-7.2-5.1-6.5 0 0-2.3.9-2.1 2.7 0 0-2.1.4-3.1 2-1 1.5 5 7.2 6.1 5.8 1.1-1.5-.9-4.5-.7-4.9.3-.3 2.5 2.2 2.5 2.2z" fill="#fff"/><path d="m293.5 161.9s3.8-.3 4.2 0c.5.3-3.4 1.1-3.4 1.9s7 2.7 8 1.2-.3-3-.3-3 .5-3.2-1.4-4.7c-1.9-1.4-6 1.3-7.1 4.6z" fill="#fff"/><path d="m294.4 166.7s1.8 3.8 1.4 4.1-2.9-3.8-2.9-3.8-3.1 6.5-1.4 7.7 5.3.1 6.2-1.9c0 0 3 0 3.9-1.2.8-1.2-3.3-5.4-7.2-4.9z" fill="#fff"/><path d="m288.4 166.6s-.5-1.9-4-1-4.3 3.1-.9 5.1c0 0 1 .5.9 1.4s2 2.5 3.2 2 3.5-6.8 3.1-7.2-3.2 1.8-3.7 1.8c-.6.2 1.4-2.1 1.4-2.1z" fill="#fff"/><ellipse cx="291.3" cy="164.3" fill="#fff" rx="1.9" ry="1.5" transform="matrix(.8224 .5689 -.5689 .8224 145.231 -136.5506)"/><path d="m212 172.4s-4.7 4.2.8 7.3c0 0-2.9 3.9-1 6.1s4.1 1.7 4.1 1.7 1.2 3.1 3.4 3.2 3.6-2.6 3.6-2.6 3.4 1.9 5.4.9 1.8-3.5 1.8-3.5 3.8-1.5 3.3-4.9-3.4-1.7-3.4-1.7 2.9-2.6 1.9-5.2c-1-2.7-3.2-5.4-5.9-5.5-2.8 0-3.8 3.8-3.8 3.8s-1.9-4.5-5.7-4.6c-3.8 0-4.5 5-4.5 5z" fill="#754e00"/><path d="m219.4 176.4s2.1.2 1.6-1.7-3.3-5.5-6.1-3.9c0 0-1.6 1.4-.9 2.8 0 0-1.6 1-2 2.5-.4 1.6 6.2 4.5 6.7 3s-2.1-3.4-1.9-3.8c.1-.4 2.6 1.1 2.6 1.1z" fill="#fff"/><path d="m222.4 176.4s3-1.4 3.5-1.2c.5.1-2.5 1.9-2.2 2.6s6.5.2 6.9-1.3-1.1-2.3-1.1-2.3-.5-2.8-2.5-3.4c-2-.9-4.6 2.5-4.6 5.6z" fill="#fff"/><path d="m224.5 180.1s2.6 2.6 2.3 3c-.2.4-3.5-2.3-3.5-2.3s-.7 6.3 1 6.8c1.8.5 4.4-1.5 4.6-3.3 0 0 2.5-.8 2.8-2.1.5-1.4-4.1-3.7-7.2-2.1z" fill="#fff"/><path d="m219.5 181.8s-.9-1.4-3.6.3-2.6 3.8.7 4.5c0 0 1 .1 1.1.9s2.4 1.5 3.2.7c.9-.8.9-6.6.5-6.8-.5-.2-2.1 2.4-2.5 2.6-.3.2.6-2.2.6-2.2z" fill="#fff"/><ellipse cx="221.3" cy="179" fill="#fff" rx="1.7" ry="1.3" transform="matrix(.9641 .2656 -.2656 .9641 55.4865 -52.3413)"/><path d="m258.6 139.5s-1.2 25.2-10 48.9l2.7-2.4s8.2-25.1 9.7-46.3z" fill="#009055"/><path d="m246 122.5s-4.4 7 3.5 8.9c0 0-2.3 5.9.9 8s5.8.8 5.8.8 2.6 3.5 5.4 2.9c2.9-.6 3.6-4.5 3.6-4.5s5 1.2 7.1-.8 1.1-5 1.1-5 4.2-3.2 2.4-7.3-4.8-.9-4.8-.9 2.7-4.2.6-7.3c-2.1-3-5.9-5.8-9.4-4.8-3.5.9-3.5 6.1-3.5 6.1s-3.9-5-8.8-3.8c-4.8 1.2-3.9 7.7-3.9 7.7z" fill="#754e00"/><path d="m256.7 124.9s2.8-.6 1.5-2.8-6.1-5.8-9-2.8c0 0-1.6 2.4-.2 3.9 0 0-1.7 1.7-1.7 3.9 0 2.1 9.4 3.6 9.5 1.5s-3.8-3.6-3.8-4.1c.1-.6 3.7.4 3.7.4z" fill="#fff"/><path d="m260.5 123.9s3.3-2.8 4-2.8c.6 0-2.5 3.3-1.9 4s8.3-2 8.3-4-2.2-2.6-2.2-2.6-1.6-3.3-4.3-3.5c-2.9-.1-5 5-3.9 8.9z" fill="#fff"/><path d="m264.4 127.8s4.1 2.4 4 2.9c-.2.6-5.1-1.7-5.1-1.7s1.3 8.2 3.7 8.2 5.1-3.4 4.6-5.8c0 0 2.9-1.9 2.9-3.7-.1-1.6-6.7-2.9-10.1.1z" fill="#fff"/><path d="m258.8 131.7s-1.7-1.5-4.4 1.7c-2.8 3.1-2 5.7 2.5 5.4 0 0 1.3-.2 1.7.7s3.5 1.1 4.3-.2-1.1-8.6-1.7-8.7-1.8 3.8-2.3 4.1c-.5.4-.1-3-.1-3z" fill="#fff"/><ellipse cx="260" cy="127.6" fill="#fff" rx="2.2" ry="1.7"/><path d="m248.6 188.4s2.7-23.9-.9-35.4c0 0-9.2 1.9-17 14.2 0 0 10-20.3 20-21.2 0 0 2.1 25.4.6 40z" fill="#009055"/><path d="m253.4 179.6s8.5-29.1 12.1-32.1 2.4 39.4 2.4 39.4-.9-25.1-2.7-29.7-11.8 22.4-11.8 22.4z" fill="#009055"/><path d="m147.9 107.9s-.1 12.6-4.7 19.8c0 0 7.6-6.1 7.9-11.2s-3.2-8.6-3.2-8.6z" fill="#fbaa29"/><path d="m160.6 101.6s3.6 7.1-3.3 15.4c-7 8.3-22.9 20.9-7.7 34.4 0 0 2.1-1.2.1-5.1s-1.4-14.2 6.8-19.4 14.1-17.9 4.1-25.3z" fill="#fbaa29"/><path d="m172.7 105.2s3.3 11.2-6.4 18-20.6 16.1-11.4 28h5.8s-5.6-6.1 1.7-15.3 8.6-15.1 8.6-15.1.5 8.3-4.4 14.5c-4.8 6.2-6.1 12.4-1.5 16.5h5.4s-7.3-9.4.8-14.4c0 0-5.9 7.1 1.4 14.7h5.1s-5.5-8.5-1.8-16.2c3.6-7.7 3.9-15 .6-20.3.1.1 1.1-5.8-3.9-10.4z" fill="#fbaa29"/><path d="m183.6 115.5s-2.7 5-2.3 10.5c.5 5.5-8.3 19.1-.9 26.4h2.7s-5.3-7.6 1.8-14.5c0 0 1.8 2.1-.2 5.5-2 3.3-1.1 6.8.6 9.1 0 0 10.8-7.4 10-17.3-.8-9.8-4.5-12.3-2.3-17.4 0 0-3.8 4.7-3 10.3s-1.2 10.3-1.2 10.3 0-6.8-3-12c-2.9-5.3-2.2-10.9-2.2-10.9z" fill="#fbaa29"/><path d="m148 153.1s15.1 3.9 38.9.6c0 0 2.7 5.1-2.4 6.7 0 0-13.3 1.5-34.5-.8 0 0-6.4-3.5-2-6.5z" fill="#fff"/><path d="m152.3 163.4s13.9 1.5 30.6.3c0 0 2.3 4.5-3.3 4.8s-18.9.5-25.4-.5c-.1.1-4.8-2-1.9-4.6z" fill="#fff"/><path d="m157.6 171.1s15.6.5 19.7.2c0 0 2.7 2.3-1.1 3.3-3.8 1.1-14.8.3-18-.2 0 0-3.8-1.8-.6-3.3z" fill="#fff"/><path d="m160.9 178.2s-.9 9.8 2.1 9.1c0 0 2.1-1.2.9-2.6s-1.8-3.8 1.1-5.1c2.9-1.4 6.8 2.4 7.9 1.8s.8-4.4.8-4.4h-10.8s-2.1.3-2 1.2z" fill="#fff"/><path d="m166 183.1s3.6 3.9 7.3 3.5c3.6-.5 1.4-2.4-.3-2.9s-3.3-2.1-4.2-2.7c-.9-.7-2.9-.5-2.8 2.1z" fill="#fff"/><path d="m166.8 188.2s4.4 3.9 6.1 4.4 4.2 1.5 5 1.4c.8-.2-2.3.6-2.1 2.6s.9 5.3 3.6 6.1c0 0-.3 1.8-1.8 1.1-1.5-.8-2.9-2.7-2.9-2.7l-1.5 13.8s1.2 1.2 4.4 1.2 7.9 3.5 10 6.2 3.6 5.9 5 5.1 3-8.8 5-11.7 1.7-3.2-.9-4.8c-2.6-1.7-7.6-5.3-9.7-12.4s-3.8-10.6-9.8-12.6c0 0-4.1 3.8-7 1.7-2.9-2.3-4.2-2-3.4.6z" fill="#fff"/><path d="m156.7 183.2s.6 4.7 4.2 5.1c3.6.5 6.5 2.3 6.7 3.6.1 1.4-3.9 2.4-4.1 1.2-.1-1.2-.8-3.2-1.5-3.2-.8 0 .3 3.3-.5 3.2-.8-.2-4.4-1.4-4.8-2.7-.5-1.4-.8-2.3-.8-2.3s-1.1 2.1-1.4 1.1-1.9-7.5 2.2-6z" fill="#fff"/><path d="m151.7 188.1s3.9 6.7 14.5 7.3c0 0 3.2.2 3.5 3.2s-5.5 1.7-5.5 1.7.2-3.8-.8-3.8c-.9 0 0 3.5-1.5 3.2s-5.5-1.5-6.4-2.6-.3-2.6-1.2-3c-.9-.5-1.1 1.1-1.5 1.1-.4-.2-5.2-3.5-1.1-7.1z" fill="#fff"/><path d="m150.8 197.2s9.1 3.9 14.8 5c0 0-.3 3.8-2.3 3.6s-2.4-3.3-2.4-3.3.6 2.1-1.4 2.1-3.5-.3-4.1-1.7-.9-2.9-1.4-2.3-1.2 2-2 1.4c-.6-.6-3.7-3.8-1.2-4.8z" fill="#fff"/><path d="m151.1 204.9s1.2 2.9 2.1 3.2 1.1 2.1 2.4 1.5c1.4-.6 1.7-1.2 1.7-1.2s-.5 2.4 1.4 2.4c1.8 0 3.6-1.7 2.6-3.2-1.1-1.5-4.2-2.4-4.2-2.4s-6.2-2.3-6-.3z" fill="#fff"/><path d="m169.4 194.6s1.2 2.3 2.4 2 .9-2.3-.1-2.9c-1.1-.6-2.9-1.5-2.3.9z" fill="#fff"/><path d="m166.8 205.8s-.9-2 1.7-3.8 3-.2 3 .8c0 .9-.9 17.4-.9 17.4s-5 1.2-7.3.5l-.3-6.5s.9-1.1-.2-2.1c-1.1-1.1 0-3.6 0-3.6s3.2-.7 4-2.7z" fill="#fff"/><path d="m163.3 222.9s4.8 1.7 7.3-.6c0 0 2.3.3 1.1 3s-7.7 2-8.9 1.4c-1.3-.6-2.7-3.5.5-3.8z" fill="#fff"/></svg>